name random_motion_10s.mot
datacolumns 16
datarows 23
range 7.50000000 7.52200000
endheader
time	lumbar_extension	lumbar_bending	lumbar_rotation	ankle_angle	subtalar_angle	mtp_angle	knee_flexion	knee_adduction	knee_rotation	knee_tx	knee_ty	knee_tz	hip_flexion	hip_adduction	hip_rotation	
          7.50000000	        -24.87772984	         10.11421910	         -5.83096797	          0.43070704	         -2.25248126	        -15.67605765	        -54.58699939	         -1.53717112	          4.17873219	         -0.00830328	          0.03264177	         -0.00784573	         -4.38230086	          4.98753377	         -8.24283753	
          7.50100000	        -23.62443979	          3.97037750	         -4.68430954	        -14.26912763	         -7.82480341	          0.00496333	        -22.38401742	         -3.70629283	          4.85296088	         -0.00190796	          0.03657295	         -0.00717076	        -21.71410640	          6.76864168	        -15.90163096	
          7.50200000	        -25.50342559	          9.37465298	         -5.28548476	         -0.21288646	        -14.95350795	          0.31144158	        -20.97153858	          4.74175931	          3.54770625	         -0.00296937	          0.02633550	         -0.00666248	         -3.45235158	          0.68340430	        -13.33736283	
          7.50300000	        -23.01300038	          5.95986855	         -3.51055712	          4.79786522	        -14.88074431	         -8.82054119	        -33.12114548	         -3.17448342	          2.46310379	         -0.00802975	          0.03883517	          0.00093117	         23.39688689	          6.63437620	         -9.77182657	
          7.50400000	        -23.61393507	          0.48427422	         -2.21425975	         -7.22504211	         -2.52744873	         -2.59497225	        -29.82107160	         -4.33802007	          2.42134293	         -0.00888855	          0.04204800	         -0.00181387	        -10.93018276	         -1.82444445	         -6.93132217	
          7.50500000	        -26.58815453	          3.38770505	         -5.88904707	        -12.60218600	         -3.95851868	        -10.00247472	        -19.69582891	         -4.98925225	         -1.98767099	          0.00386650	          0.03346728	          0.00809920	         20.38660189	          0.98332215	         -5.13322188	
          7.50600000	        -22.71416435	          9.45154380	         -4.57948744	          8.01460048	         -8.46203462	        -12.92211057	        -15.07308163	          4.75844542	          1.77519950	         -0.00626878	          0.02612834	         -0.00800329	        -23.96736657	          7.03554520	         -3.29606445	
          7.50700000	        -27.14637592	          2.18156045	         -4.87828977	        -13.10504740	        -14.74365620	         -1.83373789	        -44.02877972	          1.36959220	          0.20208046	          0.00420154	          0.03185425	         -0.00681799	        -24.30219264	          0.08803038	         -7.20964552	
          7.50800000	        -22.40635317	          7.93950768	         -3.66961159	          8.18778340	         -9.87706712	        -17.80222925	        -36.50667077	         -2.31061920	         -2.04133319	         -0.00337766	          0.04210956	          0.00464871	         10.71505916	          7.56883216	         -9.30030742	
          7.50900000	        -26.18787916	          5.00273265	         -4.46006457	          6.93389848	         -3.79858170	        -21.13424753	        -55.27191788	          1.24403716	         -4.58864822	         -0.00313456	          0.03039856	         -0.00266954	         -0.80747758	          1.87285904	        -15.08905354	
          7.51000000	        -23.99100255	          8.49944341	         -5.27266071	         -8.43934786	         -3.12365406	         -0.19111728	        -14.21495563	         -2.77805723	          2.70254312	          0.00342206	          0.03504359	          0.00899948	        -22.09306759	          5.70953131	         -4.62110861	
          7.51100000	        -21.79171929	          1.73183811	         -3.81603790	          7.47273384	         -2.30781170	        -13.52792545	        -11.36417281	          0.80658178	         -4.51512104	         -0.00683229	          0.02798261	         -0.00016800	        -16.26684653	          0.41393636	         -4.59831580	
          7.51200000	        -20.92905028	          4.54111050	         -2.61857675	          0.75972743	         -5.19420934	         -0.69584583	        -17.85038829	         -0.05889667	          3.83704793	          0.00325143	          0.04184350	          0.00772939	          7.56290126	          4.54900644	        -11.16521651	
          7.51300000	        -20.35387253	          0.08209241	         -4.54175094	        -10.76009492	         -4.10288426	          5.63655639	        -34.19873835	         -2.27508304	          4.35374549	          0.00358082	          0.02965110	          0.00162656	          9.16139532	          3.52413154	         -9.21749703	
          7.51400000	        -24.17859902	          4.60172651	         -3.70409392	        -14.27158637	        -14.55844592	         -3.78491431	        -17.68589078	          1.88274708	          2.74676279	         -0.00046612	          0.03057304	         -0.00964981	         22.25081860	          2.96757147	         -9.16974724	
          7.51500000	        -25.81699485	          6.56613306	         -3.71634053	        -11.34718272	         -9.96169800	         -9.58903604	        -26.74335202	          2.76867658	          0.22724216	         -0.00198244	          0.04196041	         -0.00392049	        -15.50722116	          8.81263239	         -7.38090677	
          7.51600000	        -26.65380371	          2.91883497	         -4.75352350	          6.96267766	        -14.46270887	        -19.36394030	        -10.04232143	         -0.20536342	          0.53161756	         -0.00286624	          0.03602063	          0.00306184	        -25.18530074	          5.09227309	         -3.83733167	
          7.51700000	        -26.77616369	          7.91220015	         -4.92958788	        -14.98106765	        -13.66899710	        -21.52184276	        -22.30245442	         -3.72696206	          2.24013265	          0.00052772	          0.04301793	          0.00664225	        -19.64657100	         -2.31344263	        -13.99006423	
          7.51800000	        -26.36292001	          9.36526470	         -3.90399445	        -14.36617126	         -8.52682334	        -16.98696331	         -5.56679360	         -0.20180361	         -1.93089001	         -0.00901284	          0.03186361	          0.00748707	          7.65392212	          4.11203240	         -5.70242528	
          7.51900000	        -22.50127884	          3.79251148	         -2.34778976	        -10.80517082	         -5.18218651	        -18.54522277	        -18.42777262	         -1.25789023	         -0.13346216	         -0.00632446	          0.02577543	         -0.00961982	         20.55746458	         -2.41332603	         -7.63533720	
          7.52000000	        -25.72523092	          1.90756926	         -4.60434337	          1.82964921	         -6.45745802	          4.64604988	        -28.05128621	          2.61517357	         -2.41321552	         -0.00539859	          0.04146243	          0.00358248	         10.57878842	          2.61327368	         -6.44013082	
          7.52100000	        -22.12350529	          6.33944520	         -5.13390252	         -2.36865231	        -13.13653934	        -11.87557585	        -63.44926895	         -5.57018248	          4.02780446	         -0.00834214	          0.02515303	         -0.00031776	        -12.17970383	          5.19898637	        -14.08745370	
          7.52200000	        -27.31055254	          6.53184039	         -3.52037454	          9.37602744	         -9.04439396	         -8.47077416	        -53.14073200	          1.53150973	          1.40971446	         -0.00963379	          0.02853700	         -0.00858454	        -18.58662346	          9.97097788	        -11.60475034	
